PathFileType	4	(X/Y/Z)	HSS_walk2.trc
DataRate	CameraRate	NumFrames	NumMarkers	Units	OrigDataRate	OrigDataStartFrame	OrigNumFrames
120.0	120.0	4	44	mm	120.0	124	984
Frame#	Time		R.Shoulder		Offset		L.Shoulder		R.Elbow		R.Wrist.Radial		R.Wrist		R.Hand		L.Elbow		L.Wrist.Radial		L.Wrist		L.Hand		R.Hip		V.Sacral		L.PSIS		L.Hip		R.Thigh.Upper		R.Thigh.Front		R.Thigh.Rear		X.Shell.Lower.Thigh.Right		R.Knee.Lateral		R.Shank.Upper		R.Shank.Front		R.Shank.Rear		X.Shell.Lower.Shank.Right		R.Ankle.Lateral		R.Heel		R.Toe		L.Thigh.Upper		L.Thigh.Front		L.Thigh.Rear		X.Shell.Lower.Thigh.Left		L.Knee.Lateral		L.Shank.Upper		L.Shank.Front		L.Shank.Rear		X.Shell.Lower.Shank.Left		L.Ankle.Lateral		L.Heel		L.Toe		R.Troc		L.Troc		R.PSIS		L.ASIS		R.ASIS
			X1	Y1	Z1	X2	Y2	Z2	X3	Y3	Z3	X4	Y4	Z4	X5	Y5	Z5	X6	Y6	Z6	X7	Y7	Z7	X8	Y8	Z8	X9	Y9	Z9	X10	Y10	Z10	X11	Y11	Z11	X12	Y12	Z12	X13	Y13	Z13	X14	Y14	Z14	X15	Y15	Z15	X16	Y16	Z16	X17	Y17	Z17	X18	Y18	Z18	X19	Y19	Z19	X20	Y20	Z20	X21	Y21	Z21	X22	Y22	Z22	X23	Y23	Z23	X24	Y24	Z24	X25	Y25	Z25	X26	Y26	Z26	X27	Y27	Z27	X28	Y28	Z28	X29	Y29	Z29	X30	Y30	Z30	X31	Y31	Z31	X32	Y32	Z32	X33	Y33	Z33	X34	Y34	Z34	X35	Y35	Z35	X36	Y36	Z36	X37	Y37	Z37	X38	Y38	Z38	X39	Y39	Z39	X40	Y40	Z40	X41	Y41	Z41	X42	Y42	Z42	X43	Y43	Z43	X44	Y44	Z44

124	1.02500	-1720.19116	1482.66223	-26.47508	-1813.01648	1374.49951	-302.43164	-1720.35254	1491.72778	-389.18362	-1722.30127	1119.08728	33.44002	-1569.58813	911.57983	31.48618	-1604.58093	904.46814	96.39979	-1552.31921	834.10101	90.07529	-1712.72998	1131.12622	-459.49762	-1582.02417	932.33313	-510.15485	-1555.39502	928.06427	-442.93484	-1532.45557	860.89874	-496.85327	-1653.79956	1037.69971	-61.82069	-1774.82141	1020.33014	-209.40509	-1775.12048	1026.78186	-250.17831	-1653.72986	1038.39355	-357.23526	-1617.84131	692.79901	-31.53374	-1585.22961	655.29791	-48.82369	-1641.90381	654.76593	-23.58831	-1615.34473	621.89697	-42.20006	-1681.83887	515.28772	-55.69688	-1698.22424	367.18289	-10.53477	-1671.92065	323.93192	-35.42138	-1730.79712	331.29749	-22.18810	-1708.58252	291.09174	-32.65882	-1721.23157	68.79135	-86.52255	-1764.03040	31.82441	-135.60597	-1566.71619	32.18845	-84.53073	-1607.63562	693.80829	-382.10577	-1588.70496	644.53381	-358.47897	-1637.41943	657.98041	-396.20172	-1612.60718	623.24805	-382.85898	-1683.44336	508.33133	-362.15945	-1724.01575	307.88068	-402.19855	-1696.86072	282.81552	-385.06113	-1755.92822	270.33600	-387.82178	-1734.17981	238.52380	-389.98572	-1723.97607	72.27821	-344.61987	-1777.83838	33.71608	-296.43094	-1580.16248	32.22336	-340.43958	-1644.54163	879.30994	-26.64572	-1647.79004	893.13513	-395.96851	-1775.13196	1025.91846	-164.87056	-1589.37268	1000.70941	-317.43054	-1595.33411	1000.25513	-93.60660
125	1.03333	-1720.09412	1482.69214	-26.49540	-1812.90210	1374.51660	-302.43802	-1720.12891	1491.71277	-389.20688	-1722.00696	1119.10291	33.52622	-1569.03894	911.88586	31.67088	-1603.99597	904.64056	96.51694	-1551.68103	834.36621	90.24809	-1712.16675	1131.16663	-459.49948	-1581.20935	932.62054	-510.43198	-1554.56262	928.31647	-443.32953	-1531.36401	861.21228	-497.27881	-1653.75635	1037.69812	-61.80682	-1774.83679	1020.36798	-209.36359	-1775.13489	1026.80859	-250.13858	-1653.83862	1038.42822	-357.19098	-1617.97876	692.80859	-31.41859	-1585.28821	655.28766	-48.75884	-1641.95068	654.75635	-23.55556	-1615.38940	621.89062	-42.15883	-1681.87329	515.28595	-55.70228	-1698.29675	367.18411	-10.51216	-1671.93457	323.92319	-35.39765	-1730.81433	331.28781	-22.21130	-1708.63025	291.07907	-32.63622	-1721.22778	68.79585	-86.50259	-1764.00598	31.82084	-135.61963	-1566.71887	32.20477	-84.53747	-1607.64099	693.79901	-382.09113	-1588.71680	644.49512	-358.36865	-1637.40894	657.96027	-396.16150	-1612.60205	623.25641	-382.83124	-1683.48413	508.33237	-362.16885	-1724.02612	307.88504	-402.16489	-1696.86963	282.80673	-384.99704	-1755.95129	270.32739	-387.77362	-1734.20227	238.51810	-389.98315	-1723.98267	72.27895	-344.61581	-1777.88660	33.74614	-296.38525	-1580.15649	32.22977	-340.39914	-1644.63867	879.31885	-26.56669	-1647.80249	893.59851	-397.32819	-1775.09949	1025.95996	-164.81503	-1589.38440	1000.67340	-317.32355	-1595.32812	1000.20935	-93.59931
126	1.04167	-1720.03259	1482.70569	-26.48705	-1812.75647	1374.52625	-302.45328	-1719.97058	1491.72913	-389.21252	-1721.71191	1119.09045	33.58154	-1568.46851	912.14734	31.78806	-1603.54150	904.83911	96.68753	-1551.07166	834.59637	90.40523	-1711.57178	1131.16882	-459.59305	-1580.30676	932.82599	-510.77036	-1551.97327	928.80530	-443.59253	-1530.40344	861.49744	-497.50504	-1653.76135	1037.73242	-61.74514	-1774.88977	1020.39050	-209.35463	-1775.15222	1026.84082	-250.11127	-1653.86145	1038.39783	-357.16785	-1618.03857	692.80621	-31.38465	-1585.37622	655.29510	-48.69096	-1642.02405	654.76984	-23.54470	-1615.43469	621.89392	-42.14568	-1681.91150	515.26489	-55.72300	-1698.38843	367.22565	-10.48633	-1671.96765	323.92578	-35.41286	-1730.87549	331.26410	-22.25488	-1708.67188	291.08527	-32.69379	-1721.23230	68.80634	-86.54269	-1764.01025	31.81638	-135.62642	-1566.72827	32.19740	-84.53255	-1607.66846	693.79114	-382.04193	-1588.72815	644.50403	-358.34247	-1637.47168	657.95563	-396.11789	-1612.62732	623.28827	-382.85239	-1683.50244	508.34607	-362.11798	-1724.06506	307.87872	-402.17032	-1696.86536	282.81342	-384.99997	-1755.98242	270.34183	-387.75546	-1734.24036	238.55667	-389.97348	-1723.99268	72.32778	-344.63327	-1777.85278	33.70713	-296.41403	-1580.17090	32.23186	-340.40259	-1644.74695	879.31598	-26.52024	-1647.87744	893.58502	-397.23697	-1775.15820	1026.00891	-164.77953	-1589.41687	1000.68726	-317.26794	-1595.44592	1000.24609	-93.49561
127	1.05000	-1719.94141	1482.74231	-26.50196	-1812.55835	1374.53687	-302.47491	-1719.81506	1491.72803	-389.21695	-1721.47510	1119.08484	33.63767	-1567.94702	912.39014	31.83193	-1602.93091	905.05731	96.73404	-1550.45483	834.88989	90.56911	-1711.05432	1131.16589	-459.70596	-1579.66113	932.96149	-510.67126	-1551.80640	928.98096	-443.79578	-1529.45764	861.85175	-497.76855	-1653.73804	1037.76611	-61.70848	-1774.90808	1020.42780	-209.27902	-1775.16785	1026.86328	-250.05591	-1655.16931	1038.15332	-357.34000	-1618.10974	692.74139	-31.31791	-1585.41711	655.28101	-48.62833	-1642.11218	654.78644	-23.37840	-1615.52124	621.89563	-42.10540	-1681.93335	515.29596	-55.71844	-1698.45618	367.23105	-10.45691	-1672.00977	323.94614	-35.42966	-1730.91113	331.25098	-22.28170	-1708.72241	291.08698	-32.64404	-1721.23889	68.81001	-86.49025	-1764.02246	31.82077	-135.62267	-1566.73425	32.21926	-84.51946	-1607.72058	693.82660	-382.02048	-1588.77783	644.48010	-358.31107	-1637.51221	657.94226	-396.09976	-1612.62646	623.23590	-382.76691	-1683.55481	508.34674	-362.09793	-1724.08167	307.91879	-402.13229	-1696.90308	282.84232	-385.02979	-1756.00269	270.35309	-387.73279	-1734.25439	238.55078	-389.95084	-1723.98669	72.30898	-344.61139	-1777.80103	33.68027	-296.42569	-1580.16199	32.24819	-340.42688	-1644.83679	879.31598	-26.46609	-1647.92065	893.60614	-397.18790	-1775.15369	1026.04053	-164.72215	-1589.47095	1000.68878	-317.26544	-1595.59302	1000.23352	-93.45137
